# xmcd
#
# Track frame offsets: 
#        150
#        12959
#        27413
#        44490
#        60624
#        73959
#        90601
#        105290
#        121288
#        136563
#        152710
#        165127
#        181371
#        200838
#
# Disc length: 2881 seconds
#
# Revision: 0
# Processed by: cddbd v1.5.2PL0 Copyright (c) Steve Scherf et al.
# Submitted via: ExactAudioCopy v0.99pb1
#
DISCID=b40b3f0e
DTITLE=T.G. Sheppard - Forever Gold
DYEAR=2007
DGENRE=Country
TTITLE0=Devil In A Bottle
TTITLE1=Do You Wanna Go To Heaven
TTITLE2=Finally
TTITLE3=I Loved 'Em Every One
TTITLE4=I'll Be Coming Back For More
TTITLE5=Last Cheater's Waltz
TTITLE6=Only One You
TTITLE7=Party Time
TTITLE8=Slow Burn
TTITLE9=Strong Heart
TTITLE10=Trying To Beat The Morning Home
TTITLE11=Half Past Forever
TTITLE12=One For The Money
TTITLE13=War Is Hell
EXTD=
EXTT0=
EXTT1=
EXTT2=
EXTT3=
EXTT4=
EXTT5=
EXTT6=
EXTT7=
EXTT8=
EXTT9=
EXTT10=
EXTT11=
EXTT12=
EXTT13=
PLAYORDER=
